<svg xmlns="http://www.w3.org/2000/svg" width="80" height="27.92413" viewBox="0 0 80 27.92413">
  <title>shark_logo_raesener_de</title>
  <path d="M0,19.60127H2.35655V21.9579H0V19.60127Zm54.598,2.32914S48.6751,15.22013,60.51328,17.395c-8.2404-4.40774-11.09246,2.153-5.91527,4.53542ZM18.243,27.92413H28.96271c2.36532,0,4.92195-1.0022,5.22938-2.28855.5165-2.15987-.0799-3.53839,1.4784-5.53476a11.924,11.924,0,0,0,1.88526,6.52053c.08281-3.604.09-5.45161,2.34756-8.468-.40163,2.47968-.73768,5.83821.5683,7.32162,2.13669-3.47948,5.97061-6.03295,10.4625-7.87658.54346-1.853,2.89467-3.17827,6.7392-2.17106A73.111,73.111,0,0,1,78.4935,13.406c-1.85487,10.616-21.23007,3.40624-23.85508,4.67339a8.53776,8.53776,0,0,1,2.11813.91261c1.75919,8.58656,12.35821,2.19486,15.94283,3.74-1.16179.83741-3.01893,2.153-4.67089,3.16774,1.36228-.12909,4.8058-2.07281,6.19792-2.83743.04712-.0259,2.27834-1.33461-.74977-1.983a6.77456,6.77456,0,0,0-2.39726.321c3.35238-3.147,8.7264-2.82479,8.92062-8.40316C75.16672,10.246,59.54258,8.0696,53.78576,7.89089a77.88539,77.88539,0,0,0-11.72059.498c-4.67181.56944-8.64492,1.98336-10.80607,2.26128C33.75734,9.12621,42.28875,6.9214,46.02386,7.1105,44.23177,4.90142,30.84494-.80788,23.84789.09621,25.058,8.03084,27.76356,18.21505,18.243,19.50173V17.01579h-3.8768V19.6383H16.9887v4.409H13.1879V21.23473H10.37533v6.6894H6.49849V24.04729H3.99012v-2.5087H6.49849v2.5087h6.00539v3.87684H18.243Zm37.1613-17.42135q.6073.17043,1.22475.32718c-.51631,1.25032,1.09253,2.72569,2.32259,2.52164a2.04024,2.04024,0,0,0,.92274-.4037L58.44976,11.505l2.12722.42127a2.03407,2.03407,0,0,0,.08709-.5186q1.03525.18971,2.08585.34891a2.92565,2.92565,0,0,1-3.07062,2.2148c-1.98834.02976-4.60186-1.2547-4.275-3.46858ZM69.16553,21.89354c-1.2491.32519-2.61993.66795-3.94422.874l2.3672-2.259,1.577,1.385Zm-4.78359.98592a6.5092,6.5092,0,0,1-4.2042-.60087l2.50234-2.092.09188.01165,1.61,2.68119Zm-4.78388-1.109a3.75468,3.75468,0,0,1-.81332-2.48748,14.84826,14.84826,0,0,0,2.88809.75305l-2.07477,1.73443Zm4.12305-1.46889c.90759.08311,1.86687.12835,2.84726.12846l-1.761,1.68061-1.08626-1.80907Zm4.85719.0641c.959-.06252,2.1949-.17315,3.12743-.3372l-1.72964,1.63383L68.5783,20.36563Zm-57.13866-2.9317H13.568v2.12848H11.43964V17.43393Z"/>
</svg>
